<svg xmlns="http://www.w3.org/2000/svg" xmlns:xlink="http://www.w3.org/1999/xlink" width="1300" height="320.52"><rect width="1300" height="320.52" rx="5" ry="5" class="a"/><svg y="0%" x="0%"><circle cx="20" cy="20" r="6" fill="#ff5f58"/><circle cx="40" cy="20" r="6" fill="#ffbd2e"/><circle cx="60" cy="20" r="6" fill="#18c132"/></svg><svg height="260.52" viewBox="0 0 126 26.052" width="1260" x="15" xmlns="http://www.w3.org/2000/svg" xmlns:xlink="http://www.w3.org/1999/xlink" y="50"><style>@keyframes k{0%{transform:translateX(0)}.02%{transform:translateX(-126px)}.76%{transform:translateX(-252px)}1.01%{transform:translateX(-378px)}1.53%{transform:translateX(-504px)}2.12%{transform:translateX(-630px)}2.4%{transform:translateX(-756px)}2.9%{transform:translateX(-882px)}3.69%{transform:translateX(-1008px)}4.11%{transform:translateX(-1134px)}4.84%{transform:translateX(-1260px)}5.38%{transform:translateX(-1386px)}5.55%{transform:translateX(-1512px)}6.16%{transform:translateX(-1638px)}6.98%{transform:translateX(-1764px)}7.4%{transform:translateX(-1890px)}8.11%{transform:translateX(-2016px)}9.39%{transform:translateX(-2142px)}9.57%{transform:translateX(-2268px)}9.9%{transform:translateX(-2394px)}10.36%{transform:translateX(-2520px)}10.5%{transform:translateX(-2646px)}11.01%{transform:translateX(-2772px)}11.53%{transform:translateX(-2898px)}12.15%{transform:translateX(-3024px)}13.53%{transform:translateX(-3150px)}14.09%{transform:translateX(-3276px)}14.7%{transform:translateX(-3402px)}15.33%{transform:translateX(-3528px)}15.81%{transform:translateX(-3654px)}16.67%{transform:translateX(-3780px)}18.2%{transform:translateX(-3906px)}18.93%{transform:translateX(-4032px)}20.04%{transform:translateX(-4158px)}20.42%{transform:translateX(-4284px)}20.84%{transform:translateX(-4410px)}21.13%{transform:translateX(-4536px)}21.54%{transform:translateX(-4662px)}21.83%{transform:translateX(-4788px)}22.26%{transform:translateX(-4914px)}22.32%{transform:translateX(-5040px)}22.65%{transform:translateX(-5166px)}23.15%{transform:translateX(-5292px)}23.58%{transform:translateX(-5418px)}24.08%{transform:translateX(-5544px)}24.59%{transform:translateX(-5670px)}25%{transform:translateX(-5796px)}25.51%{transform:translateX(-5922px)}26.19%{transform:translateX(-6048px)}26.66%{transform:translateX(-6174px)}27.17%{transform:translateX(-6300px)}27.76%{transform:translateX(-6426px)}28.87%{transform:translateX(-6552px)}29.16%{transform:translateX(-6678px)}29.64%{transform:translateX(-6804px)}30.16%{transform:translateX(-6930px)}30.35%{transform:translateX(-7056px)}30.65%{transform:translateX(-7182px)}33.3%{transform:translateX(-7308px)}33.62%{transform:translateX(-7434px)}34.03%{transform:translateX(-7560px)}34.22%{transform:translateX(-7686px)}34.53%{transform:translateX(-7812px)}34.72%{transform:translateX(-7938px)}39.21%{transform:translateX(-8064px)}43.48%{transform:translateX(-8190px)}47.75%{transform:translateX(-8316px)}52.03%{transform:translateX(-8442px)}56.3%{transform:translateX(-8568px)}60.57%{transform:translateX(-8694px)}60.67%{transform:translateX(-8820px)}65.04%{transform:translateX(-8946px)}69.41%{transform:translateX(-9072px)}73.78%{transform:translateX(-9198px)}78.15%{transform:translateX(-9324px)}82.52%{transform:translateX(-9450px)}86.89%{transform:translateX(-9576px)}91.26%{transform:translateX(-9702px)}95.63%{transform:translateX(-9828px)}to{transform:translateX(-9954px)}}.a{fill:#282d35}.f,.g,.h,.m{fill:#b9c0cb;white-space:pre}.g,.h,.m{fill:#a8cc8c}.h,.m{fill:#66c2cd}.m{fill:#71bef2}</style><g font-family="Monaco,Consolas,Menlo,'Bitstream Vera Sans Mono','Powerline Symbols',monospace" font-size="1.67"><defs><symbol id="1"><text y="1.67" class="f">$</text><text x="2.004" y="1.67" class="f">./sen6x-logger</text></symbol><symbol id="2"><text y="1.67" class="f">$</text><text x="2.004" y="1.67" class="f">./sen6x-logger</text><text x="17.034" y="1.67" class="f">/dev/i2c-1</text></symbol><symbol id="3"><text y="1.67" class="f">$</text><text x="2.004" y="1.67" class="f">./sen6x-logger</text><text x="17.034" y="1.67" class="f">/dev/i2c-1</text><text x="28.056" y="1.67" class="f">--stabilization-secs</text></symbol><symbol id="4"><text y="1.67" class="f">$</text><text x="2.004" y="1.67" class="f">./sen6x-logger</text><text x="17.034" y="1.67" class="f">/dev/i2c-1</text><text x="28.056" y="1.67" class="f">--stabilization-secs</text><text x="49.098" y="1.67" class="f">6</text></symbol><symbol id="5"><text y="1.67" class="f">$</text><text x="2.004" y="1.67" class="f">./sen6x-logger</text><text x="17.034" y="1.67" class="f">/dev/i2c-1</text><text x="28.056" y="1.67" class="f">--stabilization-secs</text><text x="49.098" y="1.67" class="f">6</text><text x="51.102" y="1.67" class="f">--stdout</text></symbol><symbol id="6"><text y="1.67" class="f">$</text><text x="2.004" y="1.67" class="f">./sen6x-logger</text><text x="17.034" y="1.67" class="f">/dev/i2c-1</text><text x="28.056" y="1.67" class="f">--stabilization-secs</text><text x="49.098" y="1.67" class="f">6</text><text x="51.102" y="1.67" class="f">--stdout</text><text x="60.12" y="1.67" class="f">json</text></symbol><symbol id="7"><text y="1.67" class="g">⠂</text><text x="2.004" y="1.67" class="f">Waiting</text><text x="10.02" y="1.67" class="f">for</text><text x="14.028" y="1.67" class="f">sensor</text><text x="21.042" y="1.67" class="f">readings</text><text x="30.06" y="1.67" class="f">to</text><text x="33.066" y="1.67" class="f">stabilize...</text><text x="73.146" y="1.67" class="h">██████████████████████████████████████████████████</text><text x="124.248" y="1.67" class="f">0s</text></symbol><symbol id="8"><text y="1.67" class="f">{&quot;pm1&quot;:4.0,&quot;pm2_5&quot;:4.7,&quot;pm4&quot;:5.1,&quot;pm10&quot;:5.3,&quot;humidity&quot;:39.65,&quot;temperature&quot;:22.05,&quot;co2&quot;:591,&quot;voc&quot;:0.0,&quot;nox&quot;:0.0}</text></symbol><symbol id="9"><text y="1.67" class="f">{&quot;pm1&quot;:3.9,&quot;pm2_5&quot;:4.5,&quot;pm4&quot;:4.9,&quot;pm10&quot;:5.1,&quot;humidity&quot;:39.66,&quot;temperature&quot;:22.05,&quot;co2&quot;:591,&quot;voc&quot;:0.0,&quot;nox&quot;:0.0}</text></symbol><symbol id="10"><text y="1.67" class="f">{&quot;pm1&quot;:3.8,&quot;pm2_5&quot;:4.4,&quot;pm4&quot;:4.7,&quot;pm10&quot;:4.9,&quot;humidity&quot;:39.66,&quot;temperature&quot;:22.04,&quot;co2&quot;:591,&quot;voc&quot;:0.0,&quot;nox&quot;:0.0}</text></symbol><symbol id="11"><text y="1.67" class="f">{&quot;pm1&quot;:3.8,&quot;pm2_5&quot;:4.4,&quot;pm4&quot;:4.7,&quot;pm10&quot;:4.9,&quot;humidity&quot;:39.67,&quot;temperature&quot;:22.02,&quot;co2&quot;:591,&quot;voc&quot;:0.0,&quot;nox&quot;:0.0}</text></symbol><symbol id="12"><text y="1.67" class="f">{&quot;pm1&quot;:3.8,&quot;pm2_5&quot;:4.4,&quot;pm4&quot;:4.7,&quot;pm10&quot;:4.9,&quot;humidity&quot;:39.68,&quot;temperature&quot;:22.0,&quot;co2&quot;:591,&quot;voc&quot;:0.0,&quot;nox&quot;:0.0}</text></symbol><symbol id="13"><text y="1.67" class="f">{&quot;pm1&quot;:3.8,&quot;pm2_5&quot;:4.4,&quot;pm4&quot;:4.7,&quot;pm10&quot;:4.9,&quot;humidity&quot;:39.69,&quot;temperature&quot;:21.98,&quot;co2&quot;:591,&quot;voc&quot;:0.0,&quot;nox&quot;:0.0}</text></symbol><symbol id="14"><text y="1.67" class="f">{&quot;pm1&quot;:3.6,&quot;pm2_5&quot;:4.2,&quot;pm4&quot;:4.6,&quot;pm10&quot;:4.7,&quot;humidity&quot;:39.7,&quot;temperature&quot;:21.955,&quot;co2&quot;:591,&quot;voc&quot;:0.0,&quot;nox&quot;:0.0}</text></symbol><symbol id="15"><text y="1.67" class="f">{&quot;pm1&quot;:3.6,&quot;pm2_5&quot;:4.2,&quot;pm4&quot;:4.6,&quot;pm10&quot;:4.7,&quot;humidity&quot;:39.71,&quot;temperature&quot;:21.92,&quot;co2&quot;:591,&quot;voc&quot;:0.0,&quot;nox&quot;:0.0}</text></symbol><symbol id="16"><text y="1.67" class="f">{&quot;pm1&quot;:3.6,&quot;pm2_5&quot;:4.2,&quot;pm4&quot;:4.6,&quot;pm10&quot;:4.7,&quot;humidity&quot;:39.73,&quot;temperature&quot;:21.88,&quot;co2&quot;:591,&quot;voc&quot;:0.0,&quot;nox&quot;:0.0}</text></symbol><symbol id="a"><path fill="transparent" d="M0 0h126v13H0z"/></symbol><symbol id="b"><path fill="#6f7683" d="M0 0h1.102v2.171H0z"/></symbol></defs><path class="a" d="M0 0h126v26.052H0z"/><g style="animation-duration:23.434209s;animation-iteration-count:infinite;animation-name:k;animation-timing-function:steps(1,end)"><svg width="10080"><svg><use xlink:href="#a"/><use xlink:href="#b" x="-.004"/></svg><svg x="126"><use xlink:href="#a"/><use xlink:href="#b" x="1.996"/><text y="1.67" class="f">$</text></svg><svg x="252"><use xlink:href="#a"/><use xlink:href="#b" x="2.996"/><text y="1.67" class="f">$</text><text x="2.004" y="1.67" class="f">.</text></svg><svg x="378"><use xlink:href="#a"/><use xlink:href="#b" x="3.996"/><text y="1.67" class="f">$</text><text x="2.004" y="1.67" class="f">./</text></svg><svg x="504"><use xlink:href="#a"/><use xlink:href="#b" x="4.996"/><text y="1.67" class="f">$</text><text x="2.004" y="1.67" class="f">./s</text></svg><svg x="630"><use xlink:href="#a"/><use xlink:href="#b" x="5.996"/><text y="1.67" class="f">$</text><text x="2.004" y="1.67" class="f">./se</text></svg><svg x="756"><use xlink:href="#a"/><use xlink:href="#b" x="6.996"/><text y="1.67" class="f">$</text><text x="2.004" y="1.67" class="f">./sen</text></svg><svg x="882"><use xlink:href="#a"/><use xlink:href="#b" x="7.996"/><text y="1.67" class="f">$</text><text x="2.004" y="1.67" class="f">./sen6</text></svg><svg x="1008"><use xlink:href="#a"/><use xlink:href="#b" x="8.996"/><text y="1.67" class="f">$</text><text x="2.004" y="1.67" class="f">./sen6x</text></svg><svg x="1134"><use xlink:href="#a"/><use xlink:href="#b" x="9.996"/><text y="1.67" class="f">$</text><text x="2.004" y="1.67" class="f">./sen6x-</text></svg><svg x="1260"><use xlink:href="#a"/><use xlink:href="#b" x="10.996"/><text y="1.67" class="f">$</text><text x="2.004" y="1.67" class="f">./sen6x-l</text></svg><svg x="1386"><use xlink:href="#a"/><use xlink:href="#b" x="11.996"/><text y="1.67" class="f">$</text><text x="2.004" y="1.67" class="f">./sen6x-lo</text></svg><svg x="1512"><use xlink:href="#a"/><use xlink:href="#b" x="12.996"/><text y="1.67" class="f">$</text><text x="2.004" y="1.67" class="f">./sen6x-log</text></svg><svg x="1638"><use xlink:href="#a"/><use xlink:href="#b" x="13.996"/><text y="1.67" class="f">$</text><text x="2.004" y="1.67" class="f">./sen6x-logg</text></svg><svg x="1764"><use xlink:href="#a"/><use xlink:href="#b" x="14.996"/><text y="1.67" class="f">$</text><text x="2.004" y="1.67" class="f">./sen6x-logge</text></svg><svg x="1890"><use xlink:href="#a"/><use xlink:href="#b" x="15.996"/><use xlink:href="#1"/></svg><svg x="2016"><use xlink:href="#a"/><use xlink:href="#b" x="16.996"/><use xlink:href="#1"/></svg><svg x="2142"><use xlink:href="#a"/><use xlink:href="#b" x="17.996"/><text y="1.67" class="f">$</text><text x="2.004" y="1.67" class="f">./sen6x-logger</text><text x="17.034" y="1.67" class="f">/</text></svg><svg x="2268"><use xlink:href="#a"/><use xlink:href="#b" x="18.996"/><text y="1.67" class="f">$</text><text x="2.004" y="1.67" class="f">./sen6x-logger</text><text x="17.034" y="1.67" class="f">/d</text></svg><svg x="2394"><use xlink:href="#a"/><use xlink:href="#b" x="19.996"/><text y="1.67" class="f">$</text><text x="2.004" y="1.67" class="f">./sen6x-logger</text><text x="17.034" y="1.67" class="f">/de</text></svg><svg x="2520"><use xlink:href="#a"/><use xlink:href="#b" x="20.996"/><text y="1.67" class="f">$</text><text x="2.004" y="1.67" class="f">./sen6x-logger</text><text x="17.034" y="1.67" class="f">/dev</text></svg><svg x="2646"><use xlink:href="#a"/><use xlink:href="#b" x="21.996"/><text y="1.67" class="f">$</text><text x="2.004" y="1.67" class="f">./sen6x-logger</text><text x="17.034" y="1.67" class="f">/dev/</text></svg><svg x="2772"><use xlink:href="#a"/><use xlink:href="#b" x="22.996"/><text y="1.67" class="f">$</text><text x="2.004" y="1.67" class="f">./sen6x-logger</text><text x="17.034" y="1.67" class="f">/dev/i</text></svg><svg x="2898"><use xlink:href="#a"/><use xlink:href="#b" x="23.996"/><text y="1.67" class="f">$</text><text x="2.004" y="1.67" class="f">./sen6x-logger</text><text x="17.034" y="1.67" class="f">/dev/i2</text></svg><svg x="3024"><use xlink:href="#a"/><use xlink:href="#b" x="24.996"/><text y="1.67" class="f">$</text><text x="2.004" y="1.67" class="f">./sen6x-logger</text><text x="17.034" y="1.67" class="f">/dev/i2c</text></svg><svg x="3150"><use xlink:href="#a"/><use xlink:href="#b" x="25.996"/><text y="1.67" class="f">$</text><text x="2.004" y="1.67" class="f">./sen6x-logger</text><text x="17.034" y="1.67" class="f">/dev/i2c-</text></svg><svg x="3276"><use xlink:href="#a"/><use xlink:href="#b" x="26.996"/><use xlink:href="#2"/></svg><svg x="3402"><use xlink:href="#a"/><use xlink:href="#b" x="27.996"/><use xlink:href="#2"/></svg><svg x="3528"><use xlink:href="#a"/><use xlink:href="#b" x="28.996"/><text y="1.67" class="f">$</text><text x="2.004" y="1.67" class="f">./sen6x-logger</text><text x="17.034" y="1.67" class="f">/dev/i2c-1</text><text x="28.056" y="1.67" class="f">-</text></svg><svg x="3654"><use xlink:href="#a"/><use xlink:href="#b" x="29.996"/><text y="1.67" class="f">$</text><text x="2.004" y="1.67" class="f">./sen6x-logger</text><text x="17.034" y="1.67" class="f">/dev/i2c-1</text><text x="28.056" y="1.67" class="f">--</text></svg><svg x="3780"><use xlink:href="#a"/><use xlink:href="#b" x="30.996"/><text y="1.67" class="f">$</text><text x="2.004" y="1.67" class="f">./sen6x-logger</text><text x="17.034" y="1.67" class="f">/dev/i2c-1</text><text x="28.056" y="1.67" class="f">--s</text></svg><svg x="3906"><use xlink:href="#a"/><use xlink:href="#b" x="31.996"/><text y="1.67" class="f">$</text><text x="2.004" y="1.67" class="f">./sen6x-logger</text><text x="17.034" y="1.67" class="f">/dev/i2c-1</text><text x="28.056" y="1.67" class="f">--st</text></svg><svg x="4032"><use xlink:href="#a"/><use xlink:href="#b" x="32.996"/><text y="1.67" class="f">$</text><text x="2.004" y="1.67" class="f">./sen6x-logger</text><text x="17.034" y="1.67" class="f">/dev/i2c-1</text><text x="28.056" y="1.67" class="f">--sta</text></svg><svg x="4158"><use xlink:href="#a"/><use xlink:href="#b" x="33.996"/><text y="1.67" class="f">$</text><text x="2.004" y="1.67" class="f">./sen6x-logger</text><text x="17.034" y="1.67" class="f">/dev/i2c-1</text><text x="28.056" y="1.67" class="f">--stab</text></svg><svg x="4284"><use xlink:href="#a"/><use xlink:href="#b" x="34.996"/><text y="1.67" class="f">$</text><text x="2.004" y="1.67" class="f">./sen6x-logger</text><text x="17.034" y="1.67" class="f">/dev/i2c-1</text><text x="28.056" y="1.67" class="f">--stabi</text></svg><svg x="4410"><use xlink:href="#a"/><use xlink:href="#b" x="35.996"/><text y="1.67" class="f">$</text><text x="2.004" y="1.67" class="f">./sen6x-logger</text><text x="17.034" y="1.67" class="f">/dev/i2c-1</text><text x="28.056" y="1.67" class="f">--stabil</text></svg><svg x="4536"><use xlink:href="#a"/><use xlink:href="#b" x="36.996"/><text y="1.67" class="f">$</text><text x="2.004" y="1.67" class="f">./sen6x-logger</text><text x="17.034" y="1.67" class="f">/dev/i2c-1</text><text x="28.056" y="1.67" class="f">--stabili</text></svg><svg x="4662"><use xlink:href="#a"/><use xlink:href="#b" x="37.996"/><text y="1.67" class="f">$</text><text x="2.004" y="1.67" class="f">./sen6x-logger</text><text x="17.034" y="1.67" class="f">/dev/i2c-1</text><text x="28.056" y="1.67" class="f">--stabiliz</text></svg><svg x="4788"><use xlink:href="#a"/><use xlink:href="#b" x="38.996"/><text y="1.67" class="f">$</text><text x="2.004" y="1.67" class="f">./sen6x-logger</text><text x="17.034" y="1.67" class="f">/dev/i2c-1</text><text x="28.056" y="1.67" class="f">--stabiliza</text></svg><svg x="4914"><use xlink:href="#a"/><use xlink:href="#b" x="39.996"/><text y="1.67" class="f">$</text><text x="2.004" y="1.67" class="f">./sen6x-logger</text><text x="17.034" y="1.67" class="f">/dev/i2c-1</text><text x="28.056" y="1.67" class="f">--stabilizat</text></svg><svg x="5040"><use xlink:href="#a"/><use xlink:href="#b" x="40.996"/><text y="1.67" class="f">$</text><text x="2.004" y="1.67" class="f">./sen6x-logger</text><text x="17.034" y="1.67" class="f">/dev/i2c-1</text><text x="28.056" y="1.67" class="f">--stabilizati</text></svg><svg x="5166"><use xlink:href="#a"/><use xlink:href="#b" x="42.996"/><text y="1.67" class="f">$</text><text x="2.004" y="1.67" class="f">./sen6x-logger</text><text x="17.034" y="1.67" class="f">/dev/i2c-1</text><text x="28.056" y="1.67" class="f">--stabilization</text></svg><svg x="5292"><use xlink:href="#a"/><use xlink:href="#b" x="43.996"/><text y="1.67" class="f">$</text><text x="2.004" y="1.67" class="f">./sen6x-logger</text><text x="17.034" y="1.67" class="f">/dev/i2c-1</text><text x="28.056" y="1.67" class="f">--stabilization-</text></svg><svg x="5418"><use xlink:href="#a"/><use xlink:href="#b" x="44.996"/><text y="1.67" class="f">$</text><text x="2.004" y="1.67" class="f">./sen6x-logger</text><text x="17.034" y="1.67" class="f">/dev/i2c-1</text><text x="28.056" y="1.67" class="f">--stabilization-s</text></svg><svg x="5544"><use xlink:href="#a"/><use xlink:href="#b" x="45.996"/><text y="1.67" class="f">$</text><text x="2.004" y="1.67" class="f">./sen6x-logger</text><text x="17.034" y="1.67" class="f">/dev/i2c-1</text><text x="28.056" y="1.67" class="f">--stabilization-se</text></svg><svg x="5670"><use xlink:href="#a"/><use xlink:href="#b" x="46.996"/><text y="1.67" class="f">$</text><text x="2.004" y="1.67" class="f">./sen6x-logger</text><text x="17.034" y="1.67" class="f">/dev/i2c-1</text><text x="28.056" y="1.67" class="f">--stabilization-sec</text></svg><svg x="5796"><use xlink:href="#a"/><use xlink:href="#b" x="47.996"/><use xlink:href="#3"/></svg><svg x="5922"><use xlink:href="#a"/><use xlink:href="#b" x="48.996"/><use xlink:href="#3"/></svg><svg x="6048"><use xlink:href="#a"/><use xlink:href="#b" x="49.996"/><use xlink:href="#4"/></svg><svg x="6174"><use xlink:href="#a"/><use xlink:href="#b" x="50.996"/><use xlink:href="#4"/></svg><svg x="6300"><use xlink:href="#a"/><use xlink:href="#b" x="51.996"/><text y="1.67" class="f">$</text><text x="2.004" y="1.67" class="f">./sen6x-logger</text><text x="17.034" y="1.67" class="f">/dev/i2c-1</text><text x="28.056" y="1.67" class="f">--stabilization-secs</text><text x="49.098" y="1.67" class="f">6</text><text x="51.102" y="1.67" class="f">-</text></svg><svg x="6426"><use xlink:href="#a"/><use xlink:href="#b" x="52.996"/><text y="1.67" class="f">$</text><text x="2.004" y="1.67" class="f">./sen6x-logger</text><text x="17.034" y="1.67" class="f">/dev/i2c-1</text><text x="28.056" y="1.67" class="f">--stabilization-secs</text><text x="49.098" y="1.67" class="f">6</text><text x="51.102" y="1.67" class="f">--</text></svg><svg x="6552"><use xlink:href="#a"/><use xlink:href="#b" x="53.996"/><text y="1.67" class="f">$</text><text x="2.004" y="1.67" class="f">./sen6x-logger</text><text x="17.034" y="1.67" class="f">/dev/i2c-1</text><text x="28.056" y="1.67" class="f">--stabilization-secs</text><text x="49.098" y="1.67" class="f">6</text><text x="51.102" y="1.67" class="f">--s</text></svg><svg x="6678"><use xlink:href="#a"/><use xlink:href="#b" x="54.996"/><text y="1.67" class="f">$</text><text x="2.004" y="1.67" class="f">./sen6x-logger</text><text x="17.034" y="1.67" class="f">/dev/i2c-1</text><text x="28.056" y="1.67" class="f">--stabilization-secs</text><text x="49.098" y="1.67" class="f">6</text><text x="51.102" y="1.67" class="f">--st</text></svg><svg x="6804"><use xlink:href="#a"/><use xlink:href="#b" x="55.996"/><text y="1.67" class="f">$</text><text x="2.004" y="1.67" class="f">./sen6x-logger</text><text x="17.034" y="1.67" class="f">/dev/i2c-1</text><text x="28.056" y="1.67" class="f">--stabilization-secs</text><text x="49.098" y="1.67" class="f">6</text><text x="51.102" y="1.67" class="f">--std</text></svg><svg x="6930"><use xlink:href="#a"/><use xlink:href="#b" x="56.996"/><text y="1.67" class="f">$</text><text x="2.004" y="1.67" class="f">./sen6x-logger</text><text x="17.034" y="1.67" class="f">/dev/i2c-1</text><text x="28.056" y="1.67" class="f">--stabilization-secs</text><text x="49.098" y="1.67" class="f">6</text><text x="51.102" y="1.67" class="f">--stdo</text></svg><svg x="7056"><use xlink:href="#a"/><use xlink:href="#b" x="57.996"/><text y="1.67" class="f">$</text><text x="2.004" y="1.67" class="f">./sen6x-logger</text><text x="17.034" y="1.67" class="f">/dev/i2c-1</text><text x="28.056" y="1.67" class="f">--stabilization-secs</text><text x="49.098" y="1.67" class="f">6</text><text x="51.102" y="1.67" class="f">--stdou</text></svg><svg x="7182"><use xlink:href="#a"/><use xlink:href="#b" x="58.996"/><use xlink:href="#5"/></svg><svg x="7308"><use xlink:href="#a"/><use xlink:href="#b" x="59.996"/><use xlink:href="#5"/></svg><svg x="7434"><use xlink:href="#a"/><use xlink:href="#b" x="60.996"/><text y="1.67" class="f">$</text><text x="2.004" y="1.67" class="f">./sen6x-logger</text><text x="17.034" y="1.67" class="f">/dev/i2c-1</text><text x="28.056" y="1.67" class="f">--stabilization-secs</text><text x="49.098" y="1.67" class="f">6</text><text x="51.102" y="1.67" class="f">--stdout</text><text x="60.12" y="1.67" class="f">j</text></svg><svg x="7560"><use xlink:href="#a"/><use xlink:href="#b" x="61.996"/><text y="1.67" class="f">$</text><text x="2.004" y="1.67" class="f">./sen6x-logger</text><text x="17.034" y="1.67" class="f">/dev/i2c-1</text><text x="28.056" y="1.67" class="f">--stabilization-secs</text><text x="49.098" y="1.67" class="f">6</text><text x="51.102" y="1.67" class="f">--stdout</text><text x="60.12" y="1.67" class="f">js</text></svg><svg x="7686"><use xlink:href="#a"/><use xlink:href="#b" x="62.996"/><text y="1.67" class="f">$</text><text x="2.004" y="1.67" class="f">./sen6x-logger</text><text x="17.034" y="1.67" class="f">/dev/i2c-1</text><text x="28.056" y="1.67" class="f">--stabilization-secs</text><text x="49.098" y="1.67" class="f">6</text><text x="51.102" y="1.67" class="f">--stdout</text><text x="60.12" y="1.67" class="f">jso</text></svg><svg x="7812"><use xlink:href="#a"/><use xlink:href="#b" x="63.996"/><use xlink:href="#6"/></svg><svg x="7938"><use xlink:href="#a"/><use xlink:href="#b" x="-.004" y="2.146"/><use xlink:href="#6"/></svg><svg x="8064"><use xlink:href="#a"/><use xlink:href="#b" x="125.996" y="2.146"/><use xlink:href="#6"/><text y="3.841" class="g">⠁</text><text x="2.004" y="3.841" class="f">Waiting</text><text x="10.02" y="3.841" class="f">for</text><text x="14.028" y="3.841" class="f">sensor</text><text x="21.042" y="3.841" class="f">readings</text><text x="30.06" y="3.841" class="f">to</text><text x="33.066" y="3.841" class="f">stabilize...</text><text x="73.146" y="3.841" class="h">████████░</text><text x="82.164" y="3.841" class="m">░░░░░░░░░░░░░░░░░░░░░░░░░░░░░░░░░░░░░░░░░</text><text x="124.248" y="3.841" class="f">5s</text></svg><svg x="8190"><use xlink:href="#a"/><use xlink:href="#b" x="125.996" y="2.146"/><use xlink:href="#6"/><text y="3.841" class="g">⠉</text><text x="2.004" y="3.841" class="f">Waiting</text><text x="10.02" y="3.841" class="f">for</text><text x="14.028" y="3.841" class="f">sensor</text><text x="21.042" y="3.841" class="f">readings</text><text x="30.06" y="3.841" class="f">to</text><text x="33.066" y="3.841" class="f">stabilize...</text><text x="73.146" y="3.841" class="h">████████████████░</text><text x="90.18" y="3.841" class="m">░░░░░░░░░░░░░░░░░░░░░░░░░░░░░░░░░</text><text x="124.248" y="3.841" class="f">4s</text></svg><svg x="8316"><use xlink:href="#a"/><use xlink:href="#b" x="125.996" y="2.146"/><use xlink:href="#6"/><text y="3.841" class="g">⠙</text><text x="2.004" y="3.841" class="f">Waiting</text><text x="10.02" y="3.841" class="f">for</text><text x="14.028" y="3.841" class="f">sensor</text><text x="21.042" y="3.841" class="f">readings</text><text x="30.06" y="3.841" class="f">to</text><text x="33.066" y="3.841" class="f">stabilize...</text><text x="73.146" y="3.841" class="h">█████████████████████████░</text><text x="99.198" y="3.841" class="m">░░░░░░░░░░░░░░░░░░░░░░░░</text><text x="124.248" y="3.841" class="f">3s</text></svg><svg x="8442"><use xlink:href="#a"/><use xlink:href="#b" x="125.996" y="2.146"/><use xlink:href="#6"/><text y="3.841" class="g">⠚</text><text x="2.004" y="3.841" class="f">Waiting</text><text x="10.02" y="3.841" class="f">for</text><text x="14.028" y="3.841" class="f">sensor</text><text x="21.042" y="3.841" class="f">readings</text><text x="30.06" y="3.841" class="f">to</text><text x="33.066" y="3.841" class="f">stabilize...</text><text x="73.146" y="3.841" class="h">█████████████████████████████████░</text><text x="107.214" y="3.841" class="m">░░░░░░░░░░░░░░░░</text><text x="124.248" y="3.841" class="f">2s</text></svg><svg x="8568"><use xlink:href="#a"/><use xlink:href="#b" x="125.996" y="2.146"/><use xlink:href="#6"/><text y="3.841" class="g">⠒</text><text x="2.004" y="3.841" class="f">Waiting</text><text x="10.02" y="3.841" class="f">for</text><text x="14.028" y="3.841" class="f">sensor</text><text x="21.042" y="3.841" class="f">readings</text><text x="30.06" y="3.841" class="f">to</text><text x="33.066" y="3.841" class="f">stabilize...</text><text x="73.146" y="3.841" class="h">█████████████████████████████████████████░</text><text x="115.23" y="3.841" class="m">░░░░░░░░</text><text x="124.248" y="3.841" class="f">1s</text></svg><svg x="8694"><use xlink:href="#a"/><use xlink:href="#b" x="125.996" y="2.146"/><use xlink:href="#6"/><use xlink:href="#7" y="2.171"/></svg><svg x="8820"><use xlink:href="#a"/><use xlink:href="#b" x="-.004" y="6.488"/><use xlink:href="#6"/><use xlink:href="#7" y="2.171"/><use xlink:href="#8" y="4.342"/></svg><svg x="8946"><use xlink:href="#a"/><use xlink:href="#b" x="-.004" y="8.659"/><use xlink:href="#6"/><use xlink:href="#7" y="2.171"/><use xlink:href="#8" y="4.342"/><use xlink:href="#9" y="6.513"/></svg><svg x="9072"><use xlink:href="#a"/><use xlink:href="#b" x="-.004" y="10.83"/><use xlink:href="#6"/><use xlink:href="#7" y="2.171"/><use xlink:href="#8" y="4.342"/><use xlink:href="#9" y="6.513"/><use xlink:href="#10" y="8.684"/></svg><svg x="9198"><use xlink:href="#a"/><use xlink:href="#b" x="-.004" y="13.001"/><use xlink:href="#6"/><use xlink:href="#7" y="2.171"/><use xlink:href="#8" y="4.342"/><use xlink:href="#9" y="6.513"/><use xlink:href="#10" y="8.684"/><use xlink:href="#11" y="10.855"/></svg><svg x="9324"><use xlink:href="#a"/><use xlink:href="#b" x="-.004" y="15.172"/><use xlink:href="#6"/><use xlink:href="#7" y="2.171"/><use xlink:href="#8" y="4.342"/><use xlink:href="#9" y="6.513"/><use xlink:href="#10" y="8.684"/><use xlink:href="#11" y="10.855"/><use xlink:href="#12" y="13.026"/></svg><svg x="9450"><use xlink:href="#a"/><use xlink:href="#b" x="-.004" y="17.343"/><use xlink:href="#6"/><use xlink:href="#7" y="2.171"/><use xlink:href="#8" y="4.342"/><use xlink:href="#9" y="6.513"/><use xlink:href="#10" y="8.684"/><use xlink:href="#11" y="10.855"/><use xlink:href="#12" y="13.026"/><use xlink:href="#13" y="15.197"/></svg><svg x="9576"><use xlink:href="#a"/><use xlink:href="#b" x="-.004" y="19.514"/><use xlink:href="#6"/><use xlink:href="#7" y="2.171"/><use xlink:href="#8" y="4.342"/><use xlink:href="#9" y="6.513"/><use xlink:href="#10" y="8.684"/><use xlink:href="#11" y="10.855"/><use xlink:href="#12" y="13.026"/><use xlink:href="#13" y="15.197"/><use xlink:href="#14" y="17.368"/></svg><svg x="9702"><use xlink:href="#a"/><use xlink:href="#b" x="-.004" y="21.685"/><use xlink:href="#6"/><use xlink:href="#7" y="2.171"/><use xlink:href="#8" y="4.342"/><use xlink:href="#9" y="6.513"/><use xlink:href="#10" y="8.684"/><use xlink:href="#11" y="10.855"/><use xlink:href="#12" y="13.026"/><use xlink:href="#13" y="15.197"/><use xlink:href="#14" y="17.368"/><use xlink:href="#15" y="19.539"/></svg><svg x="9828"><use xlink:href="#a"/><use xlink:href="#b" x="-.004" y="23.856"/><use xlink:href="#6"/><use xlink:href="#7" y="2.171"/><use xlink:href="#8" y="4.342"/><use xlink:href="#9" y="6.513"/><use xlink:href="#10" y="8.684"/><use xlink:href="#11" y="10.855"/><use xlink:href="#12" y="13.026"/><use xlink:href="#13" y="15.197"/><use xlink:href="#14" y="17.368"/><use xlink:href="#15" y="19.539"/><use xlink:href="#16" y="21.71"/></svg><svg x="9954"><use xlink:href="#a"/><use xlink:href="#b" x="-.004" y="26.027"/><use xlink:href="#6"/><use xlink:href="#7" y="2.171"/><use xlink:href="#8" y="4.342"/><use xlink:href="#9" y="6.513"/><use xlink:href="#10" y="8.684"/><use xlink:href="#11" y="10.855"/><use xlink:href="#12" y="13.026"/><use xlink:href="#13" y="15.197"/><use xlink:href="#14" y="17.368"/><use xlink:href="#15" y="19.539"/><use xlink:href="#16" y="21.71"/><text y="25.551" class="f">{&quot;pm1&quot;:3.6,&quot;pm2_5&quot;:4.2,&quot;pm4&quot;:4.6,&quot;pm10&quot;:4.7,&quot;humidity&quot;:39.76,&quot;temperature&quot;:21.83,&quot;co2&quot;:593,&quot;voc&quot;:0.0,&quot;nox&quot;:0.0}</text></svg></svg></g></g></svg></svg>